<svg version="1.1" viewBox="0.0 0.0 960.0 960.0" fill="none" stroke="none" stroke-linecap="square" stroke-miterlimit="10" xmlns:xlink="http://www.w3.org/1999/xlink" xmlns="http://www.w3.org/2000/svg"><clipPath id="p.0"><path d="m0 0l960.0 0l0 960.0l-960.0 0l0 -960.0z" clip-rule="nonzero"/></clipPath><g clip-path="url(#p.0)"><path fill="#000000" fill-opacity="0.0" d="m0 0l960.0 0l0 960.0l-960.0 0z" fill-rule="evenodd"/><path fill="#ffffff" d="m0.005249344 479.98425l0 0c0 -265.09668 214.90332 -480.0 480.0 -480.0l0 0c127.303894 0 249.3938 50.57128 339.41125 140.58875c90.017456 90.017456 140.58875 212.10733 140.58875 339.41125l0 0c0 265.09668 -214.90332 480.0 -480.0 480.0l0 0c-265.09668 0 -480.0 -214.90332 -480.0 -480.0z" fill-rule="evenodd"/><path fill="#2b3443" d="m237.2336 577.018l0 0c0 -4.98053 4.037491 -9.018005 9.01799 -9.018005l346.216 0c2.3917236 0 4.685486 0.9501343 6.376648 2.6412964c1.6912231 1.6912231 2.6412964 3.9849854 2.6412964 6.376709l0 102.7514c0 4.98053 -4.0374756 9.018005 -9.017944 9.018005l-346.216 0c-4.9804993 0 -9.01799 -4.0374756 -9.01799 -9.018005z" fill-rule="evenodd"/><path fill="#43ade4" d="m358.61942 428.64005l0 0c0 -4.9804993 4.037506 -9.018005 9.018005 -9.018005l224.79868 0c2.3917236 0 4.685486 0.95010376 6.376648 2.641327c1.6912231 1.6911926 2.6412964 3.9849548 2.6412964 6.3766785l0 102.751434c0 4.9804688 -4.0374756 9.017944 -9.017944 9.017944l-224.79868 0c-4.9804993 0 -9.018005 -4.0374756 -9.018005 -9.017944z" fill-rule="evenodd"/><path fill="#2b3443" d="m237.2336 280.2621l0 0c0 -4.9804993 4.037491 -9.018005 9.01799 -9.018005l467.47583 0c2.3917236 0 4.685486 0.9501343 6.376709 2.641327c1.6911621 1.6911926 2.6412964 3.9849548 2.6412964 6.3766785l0 102.751434c0 4.9804993 -4.0374756 9.017975 -9.018005 9.017975l-467.47583 0c-4.9804993 0 -9.01799 -4.0374756 -9.01799 -9.017975z" fill-rule="evenodd"/></g></svg>