<svg version="1.1" viewBox="0.0 0.0 960.0 540.0" fill="none" stroke="none" stroke-linecap="square" stroke-miterlimit="10" xmlns:xlink="http://www.w3.org/1999/xlink" xmlns="http://www.w3.org/2000/svg"><clipPath id="p.0"><path d="m0 0l960.0 0l0 540.0l-960.0 0l0 -540.0z" clip-rule="nonzero"/></clipPath><g clip-path="url(#p.0)"><path fill="#000000" fill-opacity="0.0" d="m0 0l960.0 0l0 540.0l-960.0 0z" fill-rule="evenodd"/><path fill="#ffffff" d="m511.4672 431.68503l0 0c0 -141.53275 117.569305 -256.2677 262.59842 -256.2677l0 0c69.64545 0 136.43835 26.999557 185.68512 75.05907c49.246765 48.059525 76.91333 113.24223 76.91333 181.20863l0 0c0 141.53275 -117.569336 256.26773 -262.59845 256.26773l0 0c-145.02911 0 -262.59842 -114.734985 -262.59842 -256.26773z" fill-rule="evenodd"/><path fill="#2b3445" d="m-44.375328 59.860893l0 0c0 -141.53275 117.56932 -256.26773 262.59842 -256.26773l0 0c69.64543 0 136.43837 26.999557 185.68513 75.05908c49.246735 48.059517 76.9133 113.24222 76.9133 181.20865l0 0c0 141.53275 -117.569336 256.2677 -262.59845 256.2677l0 0c-145.02911 0 -262.59842 -114.734955 -262.59842 -256.2677z" fill-rule="evenodd"/></g></svg>